<svg width="0" height="0" class="hidden">
  <symbol viewBox="0 -43 463.843 463" xmlns="http://www.w3.org/2000/svg" id="snow">
    <path d="M367.836 288.96h8c33.539.005 64.164-19.058 78.969-49.155 14.804-30.094 11.215-65.989-9.254-92.555-20.473-26.57-54.266-39.191-87.14-32.547A71.862 71.862 0 0 0 257.76 63.61c-18.077-49.797-73.1-75.507-122.898-57.43-49.797 18.083-75.508 73.106-57.43 122.903C33.812 130.458-.646 166.563.007 210.2c.656 43.64 36.183 78.692 79.828 78.762"
      fill="#a3d4f7"></path>
    <path d="M191.836 320.96h-20.691l18.347-18.343a8 8 0 0 0-11.312-11.312l-18.344 18.343v-20.687a8 8 0 0 0-16 0v20.687l-18.344-18.343a8 8 0 0 0-11.312 11.312l18.343 18.344h-20.687c-4.422 0-8 3.582-8 8s3.578 8 8 8h20.687l-18.343 18.344a8.001 8.001 0 0 0-2.184 7.78 8.002 8.002 0 1 0 13.496 3.531l18.344-18.343v20.688a8 8 0 0 0 16 0v-20.688l18.344 18.344a8 8 0 0 0 11.312-11.312l-18.347-18.344h20.69a8 8 0 0 0 0-16zm144-16h-20.691l18.347-18.343a8 8 0 0 0-11.312-11.312l-18.344 18.343v-20.687a8 8 0 0 0-16 0v20.687l-18.344-18.343a8 8 0 0 0-11.312 11.312l18.343 18.344h-20.687c-4.422 0-8 3.582-8 8s3.578 8 8 8h20.687l-18.343 18.344a8.001 8.001 0 0 0-2.184 7.78 8.002 8.002 0 1 0 13.496 3.531l18.344-18.343v20.688a8 8 0 0 0 16 0v-20.688l18.344 18.344a8 8 0 0 0 11.312-11.312l-18.347-18.344h20.69a8 8 0 0 0 0-16zm-90.344-61.655l-18.347-18.344h20.69a8 8 0 0 0 0-16h-20.69l18.347-18.344a8 8 0 0 0-11.312-11.312l-18.344 18.343v-20.687a8 8 0 0 0-16 0v20.687l-18.344-18.343a8 8 0 0 0-11.312 11.312l18.343 18.344h-20.687c-4.422 0-8 3.582-8 8s3.578 8 8 8h20.687l-18.343 18.344a8.001 8.001 0 0 0-2.184 7.78 8.002 8.002 0 1 0 13.496 3.531l18.344-18.343v20.688a8 8 0 0 0 16 0v-20.688l18.344 18.344a8 8 0 0 0 11.312-11.312zm0 0"
      fill="#b7f9fe"></path>
  </symbol>
  <symbol viewBox="0 -20 464.123 464" xmlns="http://www.w3.org/2000/svg" id="wind">
    <path d="M426.41 150.758c-40.668-.934-72.894-34.64-72-75.313.035-31.41 18.977-59.715 48-71.726A101.56 101.56 0 0 0 371.555.133c-54.918 0-99.434 46.562-99.434 104 0 57.441 44.516 104 99.434 104 42.414-.09 79.875-27.664 92.566-68.133a64.58 64.58 0 0 1-37.71 10.758zm0 0"
      fill="#fce666"></path>
    <path d="M363.156 336.133a83.137 83.137 0 0 0 73.66-40.965 83.145 83.145 0 0 0 0-84.29 83.149 83.149 0 0 0-73.66-40.968c-5.64.004-11.27.555-16.8 1.649-6.926-32.024-35.376-54.793-68.137-54.536a70.436 70.436 0 0 0-29.04 6.278C233.114 82.016 190.138 57.805 146.5 65.46c-43.637 7.652-75.805 45.047-76.855 89.336a88.52 88.52 0 0 0 5.421 30.336 75.515 75.515 0 0 0-64.246 114.46 75.506 75.506 0 0 0 66.543 36.54"
      fill="#a3d4f7"></path>
    <path d="M328.121 424.133a79.55 79.55 0 0 1-38.023-8.735 63.549 63.549 0 0 0-31.328-7.265 63.572 63.572 0 0 0-31.32 7.265 79.54 79.54 0 0 1-38.024 8.735 79.544 79.544 0 0 1-38.008-8.735 63.483 63.483 0 0 0-31.297-7.265 8 8 0 0 1 0-16 79.486 79.486 0 0 1 38 8.738 63.476 63.476 0 0 0 31.305 7.262 63.526 63.526 0 0 0 31.32-7.262 79.599 79.599 0 0 1 38.024-8.738 79.645 79.645 0 0 1 38.035 8.738 63.511 63.511 0 0 0 31.316 7.262c4.422 0 8 3.582 8 8 0 4.422-3.578 8-8 8zm0-96a79.55 79.55 0 0 1-38.023-8.735 63.549 63.549 0 0 0-31.328-7.265 63.572 63.572 0 0 0-31.32 7.265 79.54 79.54 0 0 1-38.024 8.735 79.544 79.544 0 0 1-38.008-8.735 63.483 63.483 0 0 0-31.297-7.265 8 8 0 0 1 0-16 79.486 79.486 0 0 1 38 8.738 63.476 63.476 0 0 0 31.305 7.262 63.526 63.526 0 0 0 31.32-7.262 79.599 79.599 0 0 1 38.024-8.738 79.645 79.645 0 0 1 38.035 8.738 63.511 63.511 0 0 0 31.316 7.262c4.422 0 8 3.582 8 8 0 4.422-3.578 8-8 8zm0-48a79.55 79.55 0 0 1-38.023-8.735 63.549 63.549 0 0 0-31.328-7.265 63.572 63.572 0 0 0-31.32 7.265 79.54 79.54 0 0 1-38.024 8.735 79.544 79.544 0 0 1-38.008-8.735 63.483 63.483 0 0 0-31.297-7.265 8 8 0 0 1 0-16 79.486 79.486 0 0 1 38 8.738 63.476 63.476 0 0 0 31.305 7.262 63.526 63.526 0 0 0 31.32-7.262 79.599 79.599 0 0 1 38.024-8.738 79.645 79.645 0 0 1 38.035 8.738 63.511 63.511 0 0 0 31.316 7.262c4.422 0 8 3.582 8 8 0 4.422-3.578 8-8 8zm0 96a79.55 79.55 0 0 1-38.023-8.735 63.549 63.549 0 0 0-31.328-7.265 63.572 63.572 0 0 0-31.32 7.265 79.54 79.54 0 0 1-38.024 8.735 79.544 79.544 0 0 1-38.008-8.735 63.483 63.483 0 0 0-31.297-7.265 8 8 0 0 1 0-16 79.486 79.486 0 0 1 38 8.738 63.476 63.476 0 0 0 31.305 7.262 63.526 63.526 0 0 0 31.32-7.262 79.599 79.599 0 0 1 38.024-8.738 79.645 79.645 0 0 1 38.035 8.738 63.511 63.511 0 0 0 31.316 7.262c4.422 0 8 3.582 8 8 0 4.422-3.578 8-8 8zm0 0"
      fill="#60a2d7"></path>
  </symbol>
  <symbol viewBox="0 0 480 480" xmlns="http://www.w3.org/2000/svg" id="clear-day">
    <path d="M376 240c0 75.11-60.89 136-136 136s-136-60.89-136-136 60.89-136 136-136 136 60.89 136 136zM240 480a8 8 0 0 1-8-8v-64a8 8 0 0 1 16 0v64a8 8 0 0 1-8 8zm0-400a8 8 0 0 1-8-8V8a8 8 0 0 1 16 0v64a8 8 0 0 1-8 8zm-120 40L72 72m48 56a8.001 8.001 0 0 1-5.656-2.344l-48-48a8 8 0 0 1 11.312-11.312l48 48A8 8 0 0 1 120 128zm288 280l-48-48m48 56a8.001 8.001 0 0 1-5.656-2.344l-48-48a8 8 0 0 1 11.312-11.312l48 48A8 8 0 0 1 408 416zm-48-296l48-48m-48 56c-3.234 0-6.152-1.95-7.39-4.938s-.551-6.43 1.734-8.718l48-48a8 8 0 0 1 11.312 11.312l-48 48A8.001 8.001 0 0 1 360 128zm112 120h-64a8 8 0 0 1 0-16h64a8 8 0 0 1 0 16zm-400 0H8a8 8 0 0 1 0-16h64a8 8 0 0 1 0 16zm0 160l48-48m-48 56c-3.234 0-6.152-1.95-7.39-4.938s-.551-6.43 1.734-8.718l48-48a8 8 0 0 1 11.312 11.312l-48 48A8.001 8.001 0 0 1 72 416zm0 0"
      fill="#fdd020"></path>
  </symbol>
  <symbol viewBox="-8 0 464 464.177" xmlns="http://www.w3.org/2000/svg" id="clear-night">
    <path d="M360.09 336.164c-92.785 0-168-75.215-168-168 .945-71.27 45.36-134.715 112-160a247.242 247.242 0 0 0-72-8c-128.133 0-232 103.871-232 232 0 128.129 103.867 232 232 232 97.191 1.05 184.176-60.156 216-152a155.763 155.763 0 0 1-88 24zm0 0" fill="#fce666"></path>
  </symbol>
  <symbol viewBox="0 -47 463.834 463" xmlns="http://www.w3.org/2000/svg" id="cloudy">
    <path d="M375.836 112.957a87.89 87.89 0 0 0-17.426 1.742 71.862 71.862 0 0 0-100.648-51.094C239.684 13.81 184.66-11.902 134.863 6.175s-75.508 73.106-57.43 122.9c-43.62 1.378-78.078 37.484-77.425 81.12.656 43.64 36.183 78.692 79.828 78.762h296c48.598 0 88-39.398 88-88s-39.402-88-88-88zm0 0"
      fill="#60a2d7"></path>
    <path d="M375.836 192.957a87.89 87.89 0 0 0-17.426 1.742 71.862 71.862 0 0 0-100.648-51.094c-18.078-49.796-73.102-75.507-122.899-57.43s-75.508 73.106-57.43 122.9c-43.62 1.378-78.078 37.484-77.425 81.12.656 43.64 36.183 78.692 79.828 78.762h296c48.598 0 88-39.398 88-88s-39.402-88-88-88zm0 0"
      fill="#a3d4f7"></path>
  </symbol>
  <symbol viewBox="0 -47 463.843 463" xmlns="http://www.w3.org/2000/svg" id="fog">
    <path d="M367.836 288.96h8c33.539.005 64.164-19.058 78.969-49.155 14.804-30.094 11.215-65.989-9.254-92.555-20.473-26.57-54.266-39.191-87.14-32.547A71.862 71.862 0 0 0 257.76 63.61c-18.077-49.797-73.1-75.507-122.898-57.43-49.797 18.083-75.508 73.106-57.43 122.903C33.812 130.458-.646 166.563.007 210.2c.656 43.64 36.183 78.692 79.828 78.762"
      fill="#a3d4f7"></path>
    <path d="M319.836 320.96h-80c-4.422 0-8-3.581-8-8 0-4.417 3.578-8 8-8h80a8 8 0 0 1 0 16zm-160 0h-64c-4.422 0-8-3.581-8-8 0-4.417 3.578-8 8-8h64a8 8 0 0 1 0 16zm48 0h-16c-4.422 0-8-3.581-8-8 0-4.417 3.578-8 8-8h16a8 8 0 0 1 0 16zm16 48h-96c-4.422 0-8-3.581-8-8 0-4.417 3.578-8 8-8h96a8 8 0 0 1 0 16zm128 0h-32c-4.422 0-8-3.581-8-8 0-4.417 3.578-8 8-8h32a8 8 0 0 1 0 16zm-64 0h-32c-4.422 0-8-3.581-8-8 0-4.417 3.578-8 8-8h32a8 8 0 0 1 0 16zm32-144h-80c-4.422 0-8-3.581-8-8 0-4.417 3.578-8 8-8h80a8 8 0 0 1 0 16zm-160 0h-64c-4.422 0-8-3.581-8-8 0-4.417 3.578-8 8-8h64a8 8 0 0 1 0 16zm48 0h-16c-4.422 0-8-3.581-8-8 0-4.417 3.578-8 8-8h16a8 8 0 0 1 0 16zm16 48h-96c-4.422 0-8-3.581-8-8 0-4.417 3.578-8 8-8h96a8 8 0 0 1 0 16zm128 0h-32c-4.422 0-8-3.581-8-8 0-4.417 3.578-8 8-8h32a8 8 0 0 1 0 16zm-64 0h-32c-4.422 0-8-3.581-8-8 0-4.417 3.578-8 8-8h32a8 8 0 0 1 0 16zm0 0"
      fill="#92aeba"></path>
  </symbol>
  <symbol viewBox="1 0 471 472" xmlns="http://www.w3.org/2000/svg" id="partly-cloudy-day">
    <path d="M400.336 192c0 66.273-53.727 120-120 120-66.277 0-120-53.727-120-120s53.723-120 120-120c66.273 0 120 53.727 120 120zm-120-144c-4.422 0-8-3.582-8-8V8a8 8 0 0 1 16 0v32a8 8 0 0 1-8 8zm184 152h-32c-4.422 0-8-3.582-8-8s3.578-8 8-8h32a8 8 0 0 1 0 16zm0 0"
      fill="#fdd020"></path>
    <path d="M376.336 296c-5.852 0-11.691.586-17.426 1.742a71.862 71.862 0 0 0-100.648-51.094c-18.078-49.796-73.102-75.507-122.899-57.43-49.797 18.083-75.508 73.106-57.43 122.903C34.314 313.5-.144 349.601.509 393.242 1.164 436.88 36.69 471.93 80.336 472h296c48.598 0 88-39.398 88-88s-39.402-88-88-88zm0 0"
      fill="#a3d4f7"></path>
    <path d="M168.336 80l-32-32m32 40a7.994 7.994 0 0 1-5.656-2.344l-32-32a8.001 8.001 0 0 1-2.184-7.781 8.002 8.002 0 1 1 13.496-3.531l32 32a8.005 8.005 0 0 1 1.73 8.719A7.996 7.996 0 0 1 168.337 88zm224-8l32-32m-32 40a7.998 7.998 0 0 1-5.656-13.656l32-32a7.992 7.992 0 0 1 7.777-2.18c2.797.73 4.984 2.914 5.715 5.711s-.102 5.773-2.18 7.781l-32 32A8.001 8.001 0 0 1 392.336 88zm0 0"
      fill="#fdd020"></path>
  </symbol>
  <symbol viewBox="0 0 464 464.102" xmlns="http://www.w3.org/2000/svg" id="partly-cloudy-night">
    <path d="M410.453 208.652c-56.95-.656-102.601-47.328-102-104.277.317-43.867 27.215-83.152 68-99.305a146.814 146.814 0 0 0-43.71-4.968c-78.657.878-141.716 65.343-140.856 144-.86 78.656 62.199 143.12 140.855 144 59.531.273 112.473-37.813 131.145-94.344a93.035 93.035 0 0 1-53.434 14.894zm0 0"
      fill="#fce666"></path>
    <path d="M375.887 288.102c-5.852 0-11.692.586-17.426 1.742a71.867 71.867 0 0 0-37.93-49.957 71.867 71.867 0 0 0-62.718-1.137c-18.079-49.797-73.102-75.508-122.899-57.43-49.797 18.082-75.508 73.106-57.43 122.903-43.62 1.379-78.078 37.48-77.425 81.12.656 43.637 36.183 78.688 79.828 78.759h296c48.597 0 88-39.399 88-88 0-48.602-39.403-88-88-88zm0 0"
      fill="#a3d4f7"></path>
  </symbol>
  <symbol viewBox="0 -47 463.843 463" xmlns="http://www.w3.org/2000/svg" id="rain">
    <path d="M367.836 288.96h8c33.539.005 64.164-19.058 78.969-49.155 14.804-30.094 11.215-65.989-9.254-92.555-20.473-26.57-54.266-39.191-87.14-32.547A71.862 71.862 0 0 0 257.76 63.61c-18.077-49.797-73.1-75.507-122.898-57.43-49.797 18.083-75.508 73.106-57.43 122.903C33.812 130.458-.646 166.563.007 210.2c.656 43.64 36.183 78.692 79.828 78.762"
      fill="#d0dad9"></path>
    <path d="M335.836 320.96c0 17.673-14.328 32-32 32-17.676 0-32-14.327-32-32 0-24 32-80 32-80s32 56 32 80zm-80-80c0 17.673-14.328 32-32 32-17.676 0-32-14.327-32-32 0-24 32-80 32-80s32 56 32 80zm-80 96c0 17.673-14.328 32-32 32-17.676 0-32-14.327-32-32 0-24 32-80 32-80s32 56 32 80zm0 0"
      fill="#60a2d7"></path>
  </symbol>
  <symbol viewBox="0 -7 463.843 463" xmlns="http://www.w3.org/2000/svg" id="sleet">
    <path d="M367.836 288.96h8c33.539.005 64.164-19.058 78.969-49.155 14.804-30.094 11.215-65.989-9.254-92.555-20.473-26.57-54.266-39.191-87.14-32.547A71.862 71.862 0 0 0 257.76 63.61c-18.077-49.797-73.1-75.507-122.898-57.43-49.797 18.083-75.508 73.106-57.43 122.903C33.812 130.458-.646 166.563.007 210.2c.656 43.64 36.183 78.692 79.828 78.762"
      fill="#d0dad9"></path>
    <path d="M127.836 196.96c8.836 0 16 7.165 16 16v192c0 8.837-7.164 16-16 16-8.84 0-16-7.163-16-16v-192c0-8.835 7.16-16 16-16zm64-20c8.836 0 16 7.165 16 16v240c0 8.837-7.164 16-16 16-8.84 0-16-7.163-16-16v-240c0-8.835 7.16-16 16-16zm64 24c8.836 0 16 7.165 16 16v192c0 8.837-7.164 16-16 16-8.84 0-16-7.163-16-16v-192c0-8.835 7.16-16 16-16zm64-24c8.836 0 16 7.165 16 16v240c0 8.837-7.164 16-16 16-8.84 0-16-7.163-16-16v-240c0-8.835 7.16-16 16-16zm0 0"
      fill="#60a2d7"></path>
  </symbol>
</svg>